<svg width="40" height="46" fill="none" xmlns="http://www.w3.org/2000/svg"><path fill-rule="evenodd" clip-rule="evenodd" d="M30.344 15.162c0-1.541-1.326-2.721-2.259-2.721-1.424 0-2.128.737-3.191 1.803l-2.324 2.212V6.934c0-1.59.032-3.196-.082-4.688-.05-.754-.344-1.23-.819-1.606-.425-.344-1.047-.656-1.735-.64-.752.017-1.178.296-1.652.656-.917.689-.835 2.77-.835 3.918v12.014c-.295-.082-.426-.312-.622-.509l-2.897-2.835c-2.177-2.114-4.943.246-4.272 2.475.098.344.377.64.557.885.556.721 1.473 1.524 1.751 1.885.54.672 2.488 2.54 3.224 3.278l1.08 1.033c.393.311.868.934 1.506 1.442.147.115.246.23.377.377.54.54 1.129.803 2.045.721 1.26-.098 1.146-.459 1.866-1 .671-.508 1.26-1.278 1.8-1.753.18-.148.246-.164.41-.345 1.096-1.049 4.402-4.442 5.319-5.556.327-.393.77-.934.77-1.492l-.017-.032zm4.533 6.277v17.833c-.393.115-.622.459-1.293.524-1.08.115-4.239.148-5.433.148l-21.8-.164c-.295-.033-.426-.115-.672-.246-.196-.098-.556-.197-.556-.426V21.57c0-.377.998-.737 1.293-.82.49-.13 1.227-.31 1.8-.31-.41-.623-.884-.837-1.555-1.984-.458-.77-.916-1.524-.998-2.622-.475-.099-1.424.295-1.882.524-.622.312-1.097.59-1.637 1.016C1.374 17.964 0 19.85 0 20.521v19.423c0 .311.556 1.36.72 1.622.377.574.606.804 1.064 1.279.95.967 2.488 1.72 3.879 2.016 1.702.36 22.766.23 22.864.23 1.457 0 2.668-.083 4.075-.083 2.652.017 5.663-1.458 6.743-3.605.148-.279.655-1.18.655-1.46V20.588c0-.328-.671-1.508-.867-1.787-1.064-1.606-2.93-2.704-4.796-3.13-.376.72.016.95-1.047 2.655-.54.869-1.244 1.377-1.67 2.032 1.686.394 1.882.148 3.24 1.066l.017.016z" fill="#FF0"/></svg>