<svg width="110" height="110" fill="none" xmlns="http://www.w3.org/2000/svg"><path fill-rule="evenodd" clip-rule="evenodd" d="M27.465 29.872v22.776l6.95 2.402.005-22.712 20.51 6.855.01 63.196L6.934 78.413V22.718l20.53 7.16v-.006zM87.567 63.15c-.262 1.196-.933 1.914-1.368 2.554.032.142.063.278.1.41.073.335.382 1.4.361 1.646.074.257.147.52.23.771.085.305.342 1.144.315 1.422.037.047.01-.016.058.094.052.231.105.451.157.677.084.152.142.535.2.771.089.357.062.614-.126.944-.184.54-.755.703-1.237.934-1.001.477-2.008.95-3.025 1.427-.45.21-1.095.582-1.147.11-.42-.132.12-1.716.146-1.752a2.476 2.476 0 01.168-.855c.031-.226.131-.819.252-1.044-.016-.304.309-1.563.398-1.962.042-.252.094-.635.215-.823-.016-.488.293-1.118.293-1.647-.288-.084-.466-.158-.686-.315-.11-.079-.393-.435-.488-.609-1.022-1.81.152-5.198 1.93-6.352.104-.068.209-.136.314-.21.471-.215.734-.34 1.169-.361.487-.048.854.167 1.132.372.188.136.587.65.686 1.07.252.566.226 1.936-.037 2.728h-.01zM79.59 48.54c.477-1.636 1.556-3.54 2.62-4.652.231-.262 1.159-1.17 1.479-1.233.193-.246.54-.378.76-.493.12-.052.24-.105.366-.163l1.007-.314c.257-.032.513-.069.77-.1.194.01.388.021.582.026.85.168 1.316.43 1.908.934.32.267 1.216 1.458 1.226 2.004.236.157.357 1.17.404 1.589.11 1.007.037 2.318.026 3.436-.016 1.138-.01 2.35-.063 3.488a29.84 29.84 0 01-.948.393c-.252.1-.498.2-.745.3-.194.078-.382.151-.576.23-.252.1-.504.205-.755.31l-.582.236c-.257.1-.508.204-.76.304l-.582.236-.77.315c-.2.078-.393.157-.587.236-.257.105-.514.21-.776.314-.199.079-.398.163-.597.242l-.787.314c-.199.084-.398.168-.602.247l-.792.32c-.587.236-1.184.477-1.777.724-.041-1.553.006-3.247.01-4.842.006-1.442.027-3.084.525-4.406l.016.005zm4.088-11.985c-.047.063.016.01-.11.11l-.084.052c-.094.058-.152.08-.246.126-.23.152-.52.383-.74.425-.12.152-.214.2-.361.3-.105.078-.21.162-.325.246-.21.157-.44.377-.629.498-.236.288-.556.52-.839.818-.246.262-.534.65-.786.797-.115.263-.367.51-.54.745-.44.588-.634.803-1.027 1.459-.162.272-.33.466-.466.75-.566 1.106-1.138 2.213-1.704 3.32-.01.22-.078.32-.173.566-.073.19-.11.326-.183.53-.142.383-.226.766-.346 1.107-.037.163-.079.288-.115.462-.016.089-.032.178-.058.262-.073.21-.042.12-.09.204.006.08-.303 1.962-.35 2.387-.21 1.967-.016 7.375-.116 7.952-.246.1-.492.194-.734.294-1.451.708-2.358 2.176-2.4 4.002-.026 1.086.021 5.466.052 9.588.032 4.086.063 7.942.021 8.162.006.01.016.026.021.042.079.273.163.54.247.803.089.063.23.288.361.388.1.078.373.178.414.299.173-.01.21.031.394.037.047 0 .115-.016.172-.011.074.01.147.016.22.026 2.102-1.012 4.178-2.009 6.217-2.995 2.013-.975 3.999-1.93 5.96-2.88a708.425 708.425 0 014.318-2.113c1.447-.703 2.883-1.39 4.193-2.004.566-.262 1.431-.603 1.924-1.091.199-.2.299-.362.456-.535.047-.053.089-.11.136-.173.016-.284.55-.645.713-2.114.005-.2.016-.404.02-.609l.017-.823c.005-.268.01-.546.02-.824l.016-.823.016-.829.016-.823c.005-.273.01-.556.02-.83l.016-.833c.006-.273.01-.551.021-.829l.016-.834c.005-.278.01-.556.021-.834l.016-.84c.005-.277.01-.555.02-.833l.016-.84c.006-.277.01-.56.021-.839.006-.283.01-.556.021-.844l.016-.845c.005-.283.01-.561.021-.839.005-.283.01-.566.021-.85.005-.283.005-.566.016-.85-.016-.377-.037-.477-.095-.797-.13-.377-.272-.645-.477-.818-.188-.168-.456-.32-.775-.31-.22.053-.446.105-.671.153-.205.084-.404.162-.608.246.031-1.915.068-3.834.1-5.76-.006-.151 0-.309-.006-.46.01-.42-.02-.824-.052-1.207-.026-.373-.126-.76-.095-1.139-.078-.068-.015.063-.073-.162-.016-.058-.026-.147-.042-.21-.026-.147-.052-.252-.078-.399-.074-.257-.435-1.442-.44-1.6-.121-.24-.242-.487-.368-.734-.194-.43-.456-.755-.655-1.117-.12-.215-.251-.294-.372-.477-.335-.362-.67-.724-1.012-1.086-.089-.063-.136-.09-.22-.163-.372-.31-.828-.556-.933-.645-.225-.115-.43-.22-.676-.304-.215-.068-.503-.11-.707-.252-.404.016-.813-.204-1.284-.157-.132 0-.242-.01-.373-.006-.136.01-.262.037-.367-.031-.277.152-.613.11-.917.178-.309.069-.623.163-.912.252-.325.09-1.52.635-1.682.635h.026zM59.93 32.453l-2.878-.021c-5.582-1.51-11.573-3.761-17.045-5.686 13.104-3.855 26.113-7.952 39.18-11.954l4.14-.745 1.294.435c4.75 1.128 9.472 2.36 14.23 3.426-12.704 4.789-26.714 9.1-38.922 14.55v-.005zm-30.652-9.206c-5.372-1.542-10.708-3.608-16.07-5.318L55.144 6.23l13.942 3.945-.508.362c-13.036 4.8-26.317 8.172-39.305 12.715l.005-.006zM.005 13.732l.021 2.392v64.444l-.02 1.988 4.664 2.062L49.038 106.8l5.828 3.2h.283l3.916-1.936 3.218-1.694 47.686-23.84-.032-5.188V22.556l.063-8.823L55.275 0h-.587L0 13.722l.005.01z" fill="#fff"/></svg>