<svg width="88" height="86" fill="none" xmlns="http://www.w3.org/2000/svg"><path fill-rule="evenodd" clip-rule="evenodd" d="M43.161 79.543c1.905 0 3.592-.02 5.258-.155a27.69 27.69 0 005.218-.91l.853-.231c.873-.233 1.766-.465 2.6-.774l1.567-.58c2.023-.736 4.404-1.974 6.646-3.405 2.242-1.432 4.404-3.057 5.972-4.585a37.77 37.77 0 006.17-7.854 36.397 36.397 0 003.81-9.17c1.21-4.565 1.448-9.536.793-14.334-.655-4.836-2.222-9.537-4.603-13.503-.972-1.625-2.42-3.598-3.988-5.416-1.448-1.703-3.035-3.29-4.404-4.314l-.12-.078c-.892-.677-1.567-1.2-2.46-1.838l-.694-.483-2.023-1.238c-2.302-1.354-5.516-2.708-8.889-3.676-2.996-.87-6.17-1.431-8.948-1.431-4.166 0-7.638.29-10.931 1.083-3.314.793-6.429 2.09-9.821 4.063-.576.328-1.032.618-1.469.89l-1.349.909c-2.44 1.663-5.02 4.1-7.261 6.79-2.163 2.592-4.047 5.455-5.178 8.124-1.131 2.65-1.984 4.953-2.56 7.39-.575 2.457-.873 5.01-.873 8.145 0 5.803 1.687 11.548 4.345 16.578 2.917 5.494 7.044 10.156 11.428 13.116 3.055 2.05 6.527 3.869 10.297 5.107 3.333 1.103 6.885 1.76 10.575 1.76l.04.02zm14.523-50.2v26.405c0 1.065-.734 1.877-1.666 2.245a3.178 3.178 0 01-1.19.232 2.81 2.81 0 01-1.131-.233c-.913-.406-1.607-1.45-1.607-3.307V30.367c0-1.857.714-2.882 1.626-3.289a2.91 2.91 0 011.151-.232c.397 0 .814.078 1.19.232.913.368 1.647 1.161 1.647 2.225l-.02.039zm-20.851 0v26.405c0 .658-.199 1.161-.496 1.529a2.573 2.573 0 01-1.33.793 3.893 3.893 0 01-1.765.039c-.615-.136-1.151-.407-1.449-.832-.159-.213-.297-.58-.397-1.006-.139-.58-.178-1.277-.178-1.993V30.794c0-.639.04-1.239.139-1.76.08-.446.218-.813.416-1.104.357-.522.913-.831 1.508-.986a3.328 3.328 0 011.687.039c.515.135.992.406 1.329.793.337.387.555.89.555 1.528l-.02.039zM88 42.768c0 2.998-.516 6.77-1.409 10.35-.833 3.346-1.964 6.519-3.293 8.705l-2.044 3.443c-.694 1.16-1.607 2.38-2.559 3.54a54.556 54.556 0 01-3.551 3.87c-1.667 1.624-3.79 3.288-6.032 4.778-2.281 1.508-4.682 2.824-6.864 3.752-2.203.929-5.198 1.935-8.214 2.65-2.46.581-4.94.968-6.984.968-.813 0-1.25.058-1.686.116-.318.039-.615.097-1.032.097l-5.119-.387c-.932-.116-1.745-.213-2.38-.31a23.437 23.437 0 01-2.203-.445c-4.305-1.083-7.896-2.36-11.21-4.159-3.313-1.799-6.408-4.159-9.74-7.37-.774-.755-1.628-1.703-2.441-2.67-.873-1.064-1.726-2.166-2.38-3.134-1.529-2.244-2.917-4.584-4.068-7.022-1.13-2.437-2.044-4.972-2.6-7.602a89.713 89.713 0 01-.971-5.707c-.2-1.491-.338-2.883-.318-3.811 0-.31.04-.6.08-.89.06-.426.119-.89.139-1.664 0-.638.138-1.74.337-2.92.238-1.49.535-3.019.754-3.85.555-2.206 1.17-4.101 1.904-5.92.734-1.818 1.627-3.579 2.699-5.475 1.527-2.67 2.182-3.462 3.59-5.203l.854-1.064c.416-.523.833-1.026 1.27-1.49a38.3 38.3 0 011.349-1.393l.258-.27c.357-.349.635-.62 1.051-.93.377-.29.655-.54.913-.792a5.38 5.38 0 01.595-.523c1.726-1.354 3.194-2.418 4.742-3.366 1.547-.947 3.194-1.818 5.277-2.805a36.72 36.72 0 017.162-2.456A43.133 43.133 0 0141.951.306c.477-.02.834-.077 1.17-.116A8.504 8.504 0 0144.65.093c5.198.174 10.197 1.103 14.88 2.786a45.839 45.839 0 0112.915 7.157c.219.175.397.349.576.523.278.251.535.503.912.793.536.406 1.39 1.238 2.242 2.147 1.151 1.238 2.322 2.592 2.917 3.385.08.117 1.071 1.451 1.11 1.587.933 1.296 1.548 2.244 2.104 3.23.575 1.006 1.091 2.07 1.825 3.56 1.111 2.244 2.064 5.223 2.758 8.318C87.603 36.752 88 40.04 88 42.768z" fill="#FF0"/></svg>