<svg width="93" height="85" fill="none" xmlns="http://www.w3.org/2000/svg"><path fill-rule="evenodd" clip-rule="evenodd" d="M63.612 74.16c-.36 1.576-2.23 1.35-3.979 1.377-1.642.026-3.23-.318-2.897-2.25.307-1.735 2.243-1.523 3.992-1.536 1.696 0 3.338.423 2.884 2.396v.013zm-47.731-3.972c.013.04.053.04.053.093.067.358 1.682 1.205 2.737 1.125.975.623 12.217.358 13.418.358 4.647 0 9.306.013 13.953 0 2.15 0 5.14-.463 5.794 1.165.36.9-.013 1.853-.72 2.29-.789.49-2.19.305-3.245.305-4.7-.04-9.4.04-14.1.013h-3.324l-3.244.013c2.043 6.077 9.346 4.594 15.22 4.608 6.636 0 13.298-.067 19.934-.014 2.644.027 7.063.37 9.24-.596 2.55-1.125 2.91-3.415 4.699-5.216 2.216-2.237 3.445-2.25 7.236-2.753 2.577-.345 4.754-2.33 5.341-4.608H13.504c.534 1.51 1.255 2.767 2.377 3.244v-.027zM44.252 46.12c.842-.742 1.135-4.303.988-5.667-.2-1.906-.934-3.826-1.829-4.964-.347-.57-.667-.927-1.028-1.377-.454-.57-.667-.821-1.335-1.112a.558.558 0 00-.067-.093l-.494-.503c-1.936-1.47-4.125-1.814-6.408-2.132-3.258-.224-6.089-1.522-8.118-3.058-.627-.476-1.068-.741-1.495-1.218-1.563-1.681-3.605-2.422-5.835-1.31-2.724 1.35-3.084 4.925-.961 7.149 6.101 6.355 3.725 10.882 6.328 15.463 2.87 5.044 9.533 7.043 14.847 4.448 2.11-1.02 4.673-3.31 5.38-5.626h.027zm1.55-14.073c.133.622 1.401 2.237 1.895 3.283.574 1.244.868 2.29 1.188 3.773l.147 3.64-.667 3.562-.12.358c-.388.516-1.175 2.422-1.683 3.203-3.591 5.534-10.841 8.195-17.45 6.05-3.752-1.217-4.873-2.991-6.182-3.627-.24-.78-1.175-1.51-1.735-2.356-.588-.887-.842-1.483-1.349-2.463-.427 1.192-.921 4.051-.574 5.256l-.107.278c-.013.053-.587 3.39.32 4.435-.106 2.238 3.779 5.839 6.33 5.52.947.623 16.622.226 19.159.226h25.033c1.002 0 5.354.185 6.075-.199.561.172.908.093 1.349-.08 2.937-.634 5.154-3.018 5.768-5.996 1.161-4.886-2.163-10.883-4.286-13.69C71.036 32.801 53.13 25.136 39.7 27.572c.28.278 0 .066.454.33.16.093.333.16.507.239 2.79 1.31 4.019 3.204 5.154 3.919l-.014-.013zm-33.66-9.387c.254.57.975 1.099 1.389 1.549l.774-.768c1.082-1.496 1.349-1.006 2.003-1.96l-.4-.238c-.014-.04-.067-.026-.107-.04-.374-.74-1.002-1.178-1.59-1.76-3.738-3.707.748-3.151.228-5.958-.254-1.363-2.123-2.277-3.739-.45-1.869 2.118.788 2.74.347 4.634-.187.82-.934 1.43-1.976 1.35-1.134-.08-1.215-.834-2.19-.98-1.561-.225-3.39 1.655-2.696 3.244.28.649 1.015 1.258 2.11 1.046.974-.198 1.228-.808 1.815-1.27 1.763-1.378 3.098 1.058 4.019 1.575l.013.026zm3.659-13.53c.4.397 1.014 1.098 1.548 1.35.2 1.072.962 1.787.962 3.469 0 1.39-.508 2.277-1.002 3.204.574.715 1.242 1.337 1.936 1.999 1.042.993.681 1.138 2.51 1.31 2.417.225 3.899 1.47 5.167 2.582 4.727 4.197 4.994 2.595 7.664 1.814 1.015-.291 2.043-.517 3.017-.755l3.392-.543c2.096-.053 3.872-.159 5.981-.08 1.816.067 3.458.385 5.247.557l3.405.728c1.255.318 6.409 2.065 6.956 2.052l7.77 3.853.802.622c3.137 1.933 7.103 5.176 9.426 7.917l2.63 3.31c1.228 3.058 3.03 4.369 3.778 10.088.788 6.024-.68 7.07-2.75 10.578 1.963-.027 3.925 0 5.888 0 2.323 0 3.098.596 2.817 3.005-.547 4.859-4.245 8.354-8.598 9.069-2.176.358-3.058-.08-4.767 1.192-1.174.873-1.535 2.197-2.523 3.428-1.415 1.761-2.75 2.344-3.058 2.741-1.348.516-2.15.9-3.778 1.191l-.748.067c-7.316.278-15.114.026-22.47.026-3.685 0-7.37.013-11.055.013-3.965 0-6.396-.357-8.905-2.356-2.938-2.357-2.577-4.687-5.261-5.746-1.963-.768-5.287.066-8.505-2.727-1.722-1.496-3.658-3.88-3.832-7.374-.16-3.442 3.298-2.503 8.759-2.53-.36-.688-.828-1.045-1.282-1.813-3.311-5.693-1.028-13.107.2-18.826.374-.41 1.202-2.793.828-3.257-.36-1.416-1.282-2.78-2.016-3.733-.854-1.125-1.428-1.086-2.537-3.244-.347-.675-.56-1.204-.72-1.959-.601-2.767.707-1.152-3.472-5.177-2.457 1.179-4.994 1.669-7.33-.648-3.138-3.111-.814-6.726-.68-7.388.72-.33 1.308-1.324 2.122-1.893.921-.635 1.335-.635 2.19-.874 1.415-.397.52-.741 1.388-2.422.414-.808.841-1.02 1.135-1.668.267-.093.027.079.307-.146.36-.291.053-.027.2-.291.655-.278.815-.689 1.67-1.086.613-.291 1.241-.41 1.962-.49 1.79-.119 2.296.305 3.645.86H15.8zm44.06 24.876c2.99 1.006 1.722 4.356-.775 3.707-3.138-.82-1.976-4.634.774-3.707zm19.56 19.303c.186 1.999.44 2.475-.655 3.733a.72.72 0 00-.094.106l-.707.132-1.629-.41c-.107-.424-.427-.61-.56-1.576-.08-.556-.188-1.615-.241-1.774-.814-4.74-5.621-9.65-9.64-12.166-2.39-1.496-1.095-3.76.654-3.734 1.416.027 5.22 3.442 6.342 4.528 3.432 3.35 5.074 5.732 6.542 11.134l-.013.027zM62.984 2.775l.093.304c.534 1.51.948 1.616 1.095 3.654-.12 1.973-.454 1.933-.908 3.376-.294.305-.44.464-.547.993-.107.53-.08.808.093 1.311l1.055 1.748c-.027.648.187.913.253 1.615.067.688-.066 1.02-.053 1.588-.574.358-.494.503-1.148.848-1.482.251-1.269-.146-2.216-.543-.308-1.086-.334-1.787-.908-2.794-2.484-4.408.8-6.447.534-8.446-.174-1.324-2.377-3.548-1.135-5.52.48-.755 1.575-1.126 2.537-.57 1.134.662.667 1.76 1.241 2.423l.014.013zM52.117 13.379l.12.384c1.762 5.826-2.524 5.084-3.111 3.257-.454-1.403-.12-1.112-.855-2.396-.828-1.443-1.054-3.614-.374-5.309.948-2.343 1.79-1.549.227-4.607-.774-1.51-1.121-4.078.708-4.528 2.457-.596 2.23 2.012 2.99 3.363 2.31 4.064-.213 6.434-.467 7.414-.253 1.032.094 1.959.735 2.422h.026zm-11.122 4.343s-2.19 1.483-3.138-.331c-.574-1.099.24-.98-1.375-3.442-.374-1.576-.44-1.827-.307-3.601.227-.583.334-1.139.694-1.748.48-.82.588-.794.694-1.88-.133-1.059-.24-.98-.72-1.8-.294-.503-.521-1.364-.668-1.695-.267-4.369 2.777-3.217 3.324-2.383.481.741.347 1.695.922 2.674 2.536 4.237-.748 6.368-.521 8.42.107.914.828 1.536 1.148 2.476.427 1.284.387 2.158-.053 3.297v.013zm-10.761 25.14c.774 1.338 1.949 2.675 3.671 2.49l.44-.12c.027-.052.094-.039.134-.066 1.509.133 1.723-1.059 3.098-1.363 1.589-.106 2.296.913 2.083 2.476-.681 1.059-.388.648-1.522 1.509-.067.053-.2.146-.294.225l-.16.146c-.014.013-.054.04-.067.066-2.083.648-3.191 1.31-5.741.622-4.486-1.218-6.316-6.117-5.288-7.85.454-.769 1.51-1.14 2.47-.69.948.45 1.002 1.47 1.175 2.543v.013z" fill="#FF0"/></svg>