<svg width="81" height="83" fill="none" xmlns="http://www.w3.org/2000/svg"><path fill-rule="evenodd" clip-rule="evenodd" d="M76.949 73.448V31.316c0-1.358-.651-2.715-1.64-3.703-.989-1.012-2.29-1.678-3.617-1.678H10.226c-1.326 0-2.653.666-3.617 1.678-.989 1.012-1.64 2.345-1.64 3.703v42.132c0 1.357.651 2.715 1.64 3.702.964 1.012 2.29 1.678 3.617 1.678h61.466c1.326 0 2.653-.666 3.617-1.678.989-1.012 1.64-2.345 1.64-3.702zm-60.26-58.57l-.025-.075-.12-.098c-.193-.173-.314-.42-.386-.74-.072-.371-.097-.865-.097-1.408l-.024-2.888c-.024-2.492-.072-5.38.024-6.713.025-.346.121-.691.29-.963.169-.296.361-.518.603-.666.168-.099.313-.173.458-.222.12-.05.265-.074.386-.099h5.353l.723.05c.53.197.893.493 1.085.888.218.444.314 1.012.314 1.728l.024 3.653c.024 2.048.024 4.097-.024 5.997 0 .198-.024.395-.072.568-.049.173-.097.346-.17.47l-.433.591-.169.149c-.53.444-.965.42-1.809.42h-3.882c-.965 0-1.52 0-1.953-.495l-.097-.123h-.048l.048-.025zm40.583 0l-.024-.075-.145-.098c-.193-.173-.313-.42-.386-.74-.072-.371-.096-.865-.096-1.408l-.024-2.937c-.024-2.468-.072-5.356.024-6.689.024-.345.12-.69.29-.962.168-.296.361-.519.602-.667a2.67 2.67 0 01.458-.222c.12-.05.266-.074.386-.099h5.136c.362 0 .724 0 1.013.1.265.073.507.221.724.468.699.765.65 2.567.602 4.22l-.024 1.111.024 1.481c.049 2.123.121 5.208-.265 6.023-.53 1.11-1.664 1.11-2.7 1.11-1.182-.024-2.388 0-3.57 0-.964 0-1.519 0-1.953-.493l-.096-.124H57.2h.072zm12.057-.667v-2.888c.868 0 1.76-.05 2.628 0l.12.124.242-.025c.723-.05 1.52.123 2.29.444a11.938 11.938 0 012.822 1.63c1.061.814 1.953 1.95 2.58 3.282A9.653 9.653 0 0181 20.974v52.252c0 .42-.024.79-.048 1.16-.024.345-.097.715-.169 1.086a10.513 10.513 0 01-.555 1.678 9.715 9.715 0 01-.844 1.58 9.41 9.41 0 01-2.58 2.616 9.444 9.444 0 01-3.376 1.48c-.29.05-.554.1-.82.124l-.868.05H9.768l-1.013-.1c-.651-.098-1.35-.32-2.026-.616-.65-.272-1.278-.617-1.76-.988l-1.06-.888c-.531-.42-1.086-1.135-1.568-1.95-.53-.913-.965-1.9-1.158-2.666-.096-.345-.144-.765-.193-1.209a26.906 26.906 0 01-.096-1.48v-51.71c0-1.11.12-2.147.386-3.11a8.942 8.942 0 011.254-2.665c.554-.765 1.085-1.407 1.736-1.975a8.983 8.983 0 012.194-1.431c1.953-.889 3.328-.889 5.932-.889h.097v.272c-.024 2.172-.049 4.072 1.64 5.8 1.784 1.826 3.375 1.802 5.521 1.752h1.568c2.001.025 4.581.074 6.1-1.95 1.472-1.95 1.472-2.887 1.423-5.06l-.024-.79h24.355c0 3.234.097 5.628 3.28 7.233.506.247.94.395 1.447.469.482.074 1.012.098 1.688.098l1.374.025c1.857.05 3.834.099 5.136-.518.434-.198.82-.445 1.158-.691.361-.272.675-.593.964-.988v-.024c.241-.346.507-.691.7-1.111.168-.37.265-.716.337-1.012l.12-.37.049-.124v-.123zm-3.472 25.398v4.739c0 .715-.218 1.308-.603 1.727-.362.395-.917.617-1.616.617h-4.799c-.675 0-1.23-.222-1.591-.617-.386-.395-.603-.962-.603-1.629v-4.911c0-.691.217-1.26.603-1.654.386-.395.964-.617 1.688-.617h4.63c.699 0 1.278.222 1.664.617.385.395.602.987.602 1.703l.025.025zM45.552 60.292v4.912c0 .691-.217 1.259-.603 1.629-.386.395-.94.617-1.592.617H38.56c-.675 0-1.23-.222-1.616-.617-.386-.395-.603-.987-.603-1.728V60.44c0-.79.217-1.407.603-1.801.386-.395.94-.618 1.688-.618h4.63c.7 0 1.278.223 1.688.617.386.37.603.938.603 1.654zm-20.304 0v4.912c0 .691-.217 1.259-.603 1.629-.386.395-.94.617-1.591.617h-4.8c-.674 0-1.229-.222-1.615-.617-.386-.395-.603-.987-.603-1.728V60.44c0-.79.217-1.407.603-1.801.386-.395.94-.618 1.688-.618h4.63c.7 0 1.278.223 1.688.617.386.37.603.938.603 1.654zm40.583 0v4.912c0 .691-.217 1.259-.602 1.629-.386.395-.94.617-1.592.617h-4.799c-.675 0-1.23-.222-1.615-.617-.386-.395-.603-.987-.603-1.728V60.44c0-.79.217-1.407.603-1.801.386-.395.94-.618 1.688-.618h4.63c.699 0 1.278.223 1.688.617.385.37.602.938.602 1.654zM25.25 39.51v4.912c0 .69-.217 1.259-.603 1.629-.386.395-.94.617-1.591.617h-4.8c-.674 0-1.229-.222-1.615-.617-.386-.395-.603-.988-.603-1.728v-4.665c0-.79.217-1.407.603-1.802s.94-.617 1.688-.617h4.63c.7 0 1.278.222 1.688.617.386.37.603.938.603 1.654zm20.304 0v4.912c0 .69-.217 1.259-.603 1.629-.386.395-.94.617-1.592.617H38.56c-.675 0-1.23-.222-1.616-.617-.386-.395-.603-.988-.603-1.728v-4.665c0-.79.217-1.407.603-1.802s.94-.617 1.688-.617h4.63c.7 0 1.278.222 1.688.617.386.37.603.938.603 1.654z" fill="#FF0"/></svg>