<svg width="107" height="85" fill="none" xmlns="http://www.w3.org/2000/svg"><path fill-rule="evenodd" clip-rule="evenodd" d="M78.925 48.401c-.06-.371-.135-.579-.255-.92-.045-.119-.09-.297-.15-.416-.196-.415-.015-.148-.256-.37.03-.862-1.967-4.543-2.478-5.152-.39-.742-1.232-1.87-1.773-2.493-.39-.46-.586-.832-.931-1.143-1.607-1.485-3.845-3.8-5.828-4.617-.346-.4-3.05-1.736-3.635-1.751-.376-.386-1.052-.52-1.548-.683a22.565 22.565 0 00-1.742-.505c-.51-.163-1.187-.4-1.727-.312-.376-.222-.661-.207-1.322-.311-2.209-.268-3.906-.238-6.129-.12l-1.547.268c-.015-.03-.06.03-.09.045-.481-.06-.962.089-1.412.193-3.17.638-8.893 3.22-11.416 5.685-.316.312-.676.52-1.007.831-.781.712-.841.965-1.292 1.47-1.036 1.142-2.989 3.532-3.47 4.987-.24.208-1.562 3.043-1.562 3.563-.27.296-.465 1.053-.616 1.514-.45 1.38-.84 3.517-.961 4.987-.12 1.395-.105 5.507.376 7.006l.165.342c-.015.415.03.341.165.697.66.149 4.852-.593 5.813-.757.39-.044 1.562-.118 1.878-.311.57.148 1.292-.06 1.922-.09.18-.014.166-.014.331-.044.015 0 .075 0 .09-.044.015-.03.045-.03.075-.045l11.416-.49 11.762.045 8.893.712c.57.03 1.111.193 1.637.09l.09.044.796.163c.286.03.571.06.871.104.811.133 4.357.772 4.927.698.826-.936.977-4.84.947-6.457-.03-1.633-.42-5.092-1.007-6.383v-.03zM44.226 74.096l-.706.059-2.764.163c-.6.045-1.742-.03-2.148.282-1.006-.148-4.626.357-5.903.49-.886.09-1.878.208-2.824.282-1.232.104-1.727.223-2.749-.282-.12-.178-.225-.267-.39-.52l-.361-.608.12-1.47.676-.786c.015-.045.045-.045.06-.075.39-.03.406-.103.841-.252.286-.104.541-.148.826-.208a27.817 27.817 0 011.683-.311c.39-.045.69-.09 1.111-.134.076-.015.451-.06.511-.074l.39-.149c.512.12 1.127-.059 1.698-.089 3.245-.326 5.889-.549 9.133-.608.39 0 2.809-.03 3.154-.208.857.267 12.919-.327 16.103-.03 1.442.134 2.584 1.559 1.758 3.117-.781 1.47-2.328 1.262-4.251 1.218-1.803-.06-3.62-.075-5.438-.104-3.545-.06-7.06.282-10.515.282l-.015.015zm29.126-3.652l2.644.282 1.172.178c.616.045 1.532.223 2.133.4.315.09.676.238.901.372.285.178.466.416.661.49.12.371 0 .074.135.326.015.03.06.09.06.075.015-.015.045.044.075.074l.015 1.603c-.856.772-.645 1.321-2.478 1.232-1.097-.06-2.328-.237-3.455-.341-2.463-.238-4.206-.193-5.122-1.797l-.24-.4c.165-1.084.135-1.44.826-2.049.78-.682 1.171-.311 2.178-.579.105.06 0 .03.255.12.045.014.15.014.225.029l.015-.015zm-1.036 9.737c1.081.357 2.088 1.129 1.817 2.554-.195.356-.255.608-.48.905-.286.356-.48.534-.721.876l-.736-.015-1.968-.09c-6.745-.296-13.67-.637-20.459-.504l-4.296.06c-.195-.475-.406-.639-.856-.906-.045-.297.18-.193-.15-.267-.27-.831-.391-.698-.106-1.603.571-1.113.797-1.35 2.284-1.455 5.633-.386 16.328-.119 22.186.193.961.045 2.599.06 3.47.267l.015-.014zm-32.987 2.48c-.375 1.098-.72 1.632-2.043 1.706l-1.967.015c-1.097-.104-1.367-.668-1.818-1.544-.15-.905.03-1.113.316-1.78.42-.105.766-1.381 3.29-.891 1.606.178 2.433.757 2.222 2.493zM107 45.936v.935c-.541.95-.631 1.336-1.968 1.618l-1.892.475c-.015-.03-.061.03-.091.045-.661-.06-2.478.4-3.23.534-1.006.193-2.222.445-3.244.55-.57.088-1.622.103-2.028.4-.615-.06-1.051.09-1.667.134l-1.577.014c-.51-.207-.616-.282-.916-.549-.361-.608-.571-1.425-.346-2.226.24-.787.946-.742 1.397-1.262.45.015 1.202-.223 1.667-.341l1.292-.268c.03-.014.06-.03.09-.03l.166-.088c.015-.045.06-.03.075-.045.616.09 3.23-.475 4.07-.623.36-.06.827-.09 1.142-.282.526.074 1.187-.104 1.712-.208 2.404-.252 3.996-1.395 5.228 1.039.015.015.045.104.045.089.015-.015.03.06.045.089h.03zM6.162 44.794c.556.03 1.007.208 1.533.134.36.237 1.396.326 1.832.4l5.453 1.054c.6.164 1.171.312 1.697.564.631.312.841.475.947 1.322.015.846-.075 1.142-.33 1.825-.301.06-.226.074-.407.327-.766.193-.886.282-1.787.267l-7.871-1.262c-1.037-.193-4.747-.786-5.633-1.291-.631-.371-.601-.727-.946-1.306v-.832c.315-.534.255-.757.75-1.202.361-.341.707-.52 1.322-.505.902.03 2.554.327 3.425.49l.015.015zM29.22 22.87c.135.43.676.95.961 1.365.3.431.556.92.841 1.322.09.668-.105 1.172-.375 1.618-.285.46-.586.549-1.202.771-1.877.045-2.118-.875-3.455-2.078-.886-.801-3.62-4.423-4.356-4.868-.075-.446-.12-.312-.435-.683l-3.26-4.201c-.36-.505-.676-.846-.526-1.648.12-.638.466-.98.947-1.261 1.442-.817 2.012-.535 2.869.46.991 1.158 2.133 2.256 3.079 3.458.3.372.646.713.976 1.084l1.983 2.39c.3.4.691.772 1.007 1.187.24.297.676.935.961 1.069l-.015.015zM51.632 6.928c0-1.351-.03-2.732.075-4.067.045-.58.09-1.218.405-1.618.346-.46.841-.446 1.382-.698h.646c1.217.579 1.683.134 1.788 2.85.06 1.484.06 2.969.06 4.453 0 2.94.105 6.116-.09 9.025-.105 1.544-.857 2.33-2.539 2.093-1.607-.223-1.592-1.35-1.682-2.895-.166-2.983-.015-6.13-.06-9.143h.015zm38.59 7.585c.09.697-.106.935-.301 1.44-.135.089-.631.831-.796 1.054-1.653 2.226-3.726 4.378-5.318 6.397-.3.386-.676.594-.766 1.024l-1.592 1.56c-.916 1.068-1.517 2.151-2.749 2.062-1.247-.252-1.637-.653-2.103-1.573 0-1.054.33-1.128.586-1.84l8.802-10.48c.346-.208.165-.015.346-.386.6-.253 1.231-1.396 2.238-.95.811.356 1.382.86 1.637 1.707l.015-.015zM61.995 26.09c.3.237 2.78 1.039 3.275 1.217.526.253 3.395 1.603 3.59 1.618.21.267.556.416.841.594l2.569 1.618c.165.341.39.37.766.683l3.56 3.325c.285.326.991 1.276 1.262 1.44.21.474 1.247 1.706 1.712 2.478.36.58 1.277 2.33 1.577 2.583.046.505.481 1.232.722 1.767.27.578.45 1.157.72 1.721.106.401.346 1.307.616 1.604-.06.608.3 1.365.451 2.004.135.608.27 1.35.36 2.033.196 1.47.316 2.954.316 4.498v1.261c0 1.025-.09 2.079-.24 3.073-.106.653-.466 2.152-.376 2.642l5.933 1.603c.676.238 1.788.55 2.449.891.676.356.991 1.41.63 2.36-.765 2.049-2.733 1.247-4.776.817-.48-.164-1.442-.43-1.923-.386-.525-.49-5.332-1.322-6.519-1.544-.706-.074-1.517-.416-2.193-.297-.42-.282-2.839-.564-3.275-.609-.826-.163-4.175-.682-4.821-.534-.03-.015-.075-.074-.09-.044l-.737-.164c-.315-.03-.615-.044-.946-.074-.796-.03-1.772-.267-2.508-.06l-.18-.074c-.662-.178.6.09-.196-.044-.15-.03-.316-.015-.466-.03-.525-.015-1.126-.104-1.592.03-.496-.267-.015-.06-.375-.119-.842-.133-10.335-.148-11.672-.133h-.931c-.15 0-.3.014-.436.044-.3.06-.165.03-.27.09-.811-.268-4.612.044-5.753.088l-.752.104a.315.315 0 00-.09.03c-.706-.193-1.637.03-2.403.06-.12.014-.21.014-.346.044-.3.089-.165.06-.27.118-1.292-.296-8.772 1.247-10.605 1.44l-1.517.386c-.526-.074-1.217.134-1.727.267l-3.29.772-2.028.535-1.427.297c-.015 0-.15.044-.18.059-.286.119-.12.044-.256.133-.69-.059-1.367.327-2.073.09-.54-.178-1.036-.772-1.261-1.262l-.136-1.217c.046-.223.09-.357.18-.55.166-.311.241-.296.286-.534 1.517-.55 2.794-1.024 4.371-1.5 1.127-.34 3.68-.786 4.387-1.26 0-.387-.15-1.084-.376-1.322.09-.683-.316-3.533-.345-4.601-.046-.995.24-4.305.135-4.75.09-.134.03.014.12-.282.03-.104.03-.104.06-.194.03-.133.06-.4.075-.563l.766-3.608.3-.638c.106-.297.136-.46.21-.787.271-.475.482-1.217.707-1.736.255-.594.69-1.188.72-1.782.421-.326.812-1.32 1.112-1.78.316-.505.827-1.203 1.067-1.708.405-.445.616-.876.976-1.306 1.022-1.202 1.022-1.366 2.148-2.45a19.03 19.03 0 001.082-1.113c.496-.534.811-.712 1.217-1.083l2.583-2.004c.24-.163 1.142-.712 1.217-.846.57-.238 1.247-.638 1.803-.95.36-.208.51-.253.856-.416l.826-.504c.466-.03 1.081-.327 1.472-.564l2.839-.906c.135-.03.346-.089.466-.134l.435-.207c.631.089 6.46-1.292 12.017-.475.842.133 2.854.786 3.5.697l.075.03z" fill="#FF0"/></svg>