<svg width="87" height="87" fill="none" xmlns="http://www.w3.org/2000/svg"><path fill-rule="evenodd" clip-rule="evenodd" d="M30.806 52.934l.13.074 22.157-22.235-.037-.112c-.56-.411-17.102-17.083-17.55-17.531-2.611-2.614-4.122-4.163-7.647-5.508-2.22-.858-5.352-1.138-7.684-.746-1.66.28-1.92.392-3.45.933-1.66.579-4.029 2.203-5.297 3.473L9.47 13.709c-2.014 2.893-2.854 6.553-2.537 10.455.243 2.987 1.548 5.675 3.152 7.822 1.082 1.457 1.921 2.147 3.17 3.398.448.448 17.103 17.008 17.514 17.568l.037-.018zM23.682.9h-2.593a21.11 21.11 0 00-2.685.336 24.66 24.66 0 00-3.992 1.195c-.447.187-.746.336-1.156.504-1.996.803-3.618 2.278-5.148 3.454-.317.243-.578.542-.858.822-2.07 2.072-4.364 5.489-5.166 8.42-.317 1.157-.447 1.4-.708 2.725-.28 1.438-.262 2.483-.41 3.902-.038.355.055.486.074.785.056.56.019 1.101.074 1.586.224 2.035.579 3.678 1.306 5.545.168.43.298.766.504 1.177.764 1.586.839 1.754 1.827 3.267l2.332 2.856C9.526 39.921 28.587 59.17 29.258 59.58c.28.168.84.41 1.25.41 1.51 0 1.771-.149 3.002-1.38l25.197-25.224c1.212-1.213 1.343-1.456 1.343-2.968 0-.523-.354-1.195-.597-1.512L44.03 13.447c-1.772-1.773-4.942-5.096-6.714-6.72l-1.678-1.4c-1.194-.897-1.213-.878-2.481-1.644C30.433 2.06 27.039 1.107 23.644.92l.038-.019zM87 64.359c0 4.91-.28 6.03-1.996 10.268-.13.317-.223.523-.41.822-.186.317-.298.54-.466.84-1.996 3.323-4.346 5.675-7.665 7.673-2.5 1.493-6.528 2.93-9.885 2.93-3.152 0-4.775-.018-7.815-1.045-1.79-.597-3.114-1.25-4.606-2.147-2.723-1.605-4.999-4.2-7.2-6.403L35.114 65.442c-2.63-2.614-.018-5.937 2.705-5.078 1.044.317 2.797 2.352 3.636 3.192l13.727 13.647 1.94 1.475c.783.486 1.399.803 2.238 1.177 4.159 1.83 8.784 1.55 12.888-.262.391-.168.783-.41 1.193-.653.429-.262.802-.486 1.175-.747 1.324-.934 2.816-2.409 3.749-3.79 3.88-5.713 3.805-12.957-.355-18.483l-.671-.821c-.13-.15-.242-.243-.392-.392-.186-.187-.186-.243-.354-.43-.709-.859-9.717-9.727-10.743-10.754-.634-.634-4.942-4.742-5.24-5.451-1.306-3.025 2.312-5.769 4.942-3.1L80.77 50.208c3.562 3.566 6.21 9.167 6.21 14.152v.018l.02-.018z" fill="#FF0"/><path fill-rule="evenodd" clip-rule="evenodd" d="M41.847 28.29c0 .69.056 1.175-.298 1.81-.522.915-1.418 1.531-2.593 1.531-1.622 0-2.853-1.662-4.177-3.006l-3.6-3.603c-1.138-1.139-4.308-4.5-5.54-5.246-2.35-1.419-4.643-1.363-6.639.635-.186.186-.28.317-.485.466-1.678 1.27-4.7.449-4.7-2.427 0-1.661 1.921-3.061 3.227-3.883 4.663-2.912 9.27-1.68 13.26 1.326l7.647 7.617 2.145 2.147c.615.616 1.772 1.493 1.772 2.613l-.019.02zM30.806 52.934l22.269-22.273.037.112L30.955 53.01l-.149-.075z" fill="#FF0"/></svg>