<svg width="95" height="86" fill="none" xmlns="http://www.w3.org/2000/svg"><path fill-rule="evenodd" clip-rule="evenodd" d="M45.718.58l.744.998c.075.145.15.508.354 1.342l.056.78c-.13.4-.186.798-.316 1.197a2.09 2.09 0 01-.41.69l-.056.054c-.167.145-.372.29-.633.417-.26.127-.39.163-.54.218l-.539.181h-.726c-.781 0-1.935.018-2.736.218a4.363 4.363 0 00-.688 0c-.689.036-1.545.073-2.233.327l-.577.054a5.298 5.298 0 00-.931.2c-.465.072-1.526.29-2.364.526a6.8 6.8 0 00-1.265.471c-.465.09-1.08.272-1.638.472-.577.2-1.172.453-1.582.69a6.96 6.96 0 00-1.75.761c-.576.218-1.45.69-2.326 1.197-1.21.69-2.456 1.488-2.866 1.832-.67.454-1.247.871-1.786 1.288l-.038.037c-.558.453-1.098.889-1.656 1.396l-.075.073c-.8.725-1.432 1.306-2.01 1.886a35.789 35.789 0 00-1.954 2.16l-.186.217c-.242.29-.484.562-.688.925-.335.29-.577.671-.782 1.016a9.389 9.389 0 01-.372.544c-.186.254-.354.49-.577.853l-.372.58c-.391.599-.838 1.288-1.136 1.977-.502.726-1.098 2.123-1.47 2.975l-.354.871c-.297.707-.67 1.65-.818 2.395-.335.58-.466 1.324-.577 1.922-.335 1.796-.689 3.356-.912 5.243-.13 1.143-.186 3.41-.093 5.478v.018c.074 1.578.223 3.066.502 3.973l.019.109c.056.616.149 1.45.465 2.122.019.218.056.417.112.617l.204.653c.093.453.354 1.288.615 2.032.204.58.428 1.16.614 1.523.13.417.446 1.143.744 1.778l.037.09c.242.527.522 1.035.726 1.361.186.436.596 1.197 1.024 1.923.39.653.8 1.288 1.098 1.669.26.453.651.943.93 1.324 1.192 1.65 2.643 3.084 4.04 4.553l.148.145a71.418 71.418 0 002.55 2.25c.688.562 1.396 1.088 1.954 1.433.484.399 1.451 1.016 2.438 1.578 1.117.635 2.326 1.27 2.996 1.524.372.236.875.471 1.377.69.521.217 1.117.434 1.564.543.67.454 1.563.635 2.177.762.391.145 1.173.381 1.861.544.373.091.726.164 1.043.182 2.4.943 7.463.907 10.198.87.763-.018 2.103-.036 2.978-.344l1.042-.09c.54-.055 1.154-.128 1.675-.346.391-.036.894-.127 1.359-.235.596-.145 1.247-.327 1.656-.49.335-.073.838-.2 1.285-.345.279-.09.558-.217.8-.344a7.35 7.35 0 001.284-.4 23.593 23.593 0 001.936-.852c.502-.181 1.21-.508 1.86-.835.615-.326 1.21-.67 1.582-.961 2.718-1.342 5.565-4.009 7.724-6.04l.317-.309c.353-.326 1.656-1.814 2.642-3.084.521-.671.968-1.342 1.21-1.85.428-.49.93-1.252 1.377-2.068.633-1.125 1.266-2.413 1.508-3.084.242-.399.502-.98.707-1.56.205-.526.372-1.106.465-1.542.335-.58.503-1.36.596-1.868a8.09 8.09 0 00.26-.798c.037-.2.075-.4.093-.599.205-.508.372-1.215.484-1.96v-.053c.205-1.288.354-2.812.335-3.393a1.375 1.375 0 00-1.414-1.324l-5.807-.018c.28-.435.558-.907.763-1.288l.82-1.342c.334-.526.67-1.052.985-1.615.224-.326.391-.617.577-.907.168-.29.354-.58.54-.87.28-.436.651-.98.893-1.506.354-.49.95-1.415 1.508-2.322a81.166 81.166 0 001.414-2.376c.224-.309.428-.653.633-.998l.447-.707c.223-.345.577-.89.8-1.38.41-.453.707-.979.986-1.487l.02-.018c.278.436.557.907.837 1.343.353.58.707 1.16 1.023 1.65l.465.799.838 1.342c.205.38.428.744.689 1.07.353.671.744 1.288 1.135 1.887.298.435.54.907.837 1.342.317.544.67 1.125.987 1.542.242.471.725 1.324 1.19 2.068.299.49.634.961.894 1.288.149.363.354.69.558.998.317.507.633 1.015.931 1.523l-4.56-.018c-1.954-.018-1.991 0-2.214 1.143-.056.163-.075.345-.056.526-.186.653-.242 1.506-.28 2.213l-.055.726-.242 1.469-.28 1.487-.241.98c-.168.635-.354 1.342-.428 1.905-.242.435-.391.943-.503 1.378-.074.327-.223.69-.335 1.016-.13.363-.26.708-.372 1.089l-.447 1.142c-.279.418-.577 1.089-.837 1.688l-.391.852-.168.29c-.13.236-.223.381-.334.744l-1.508 2.594c-.41.417-.856 1.088-1.191 1.596l-.28.418c-.409.562-1.19 1.56-1.954 2.485-.65.798-1.302 1.542-1.693 1.94l-2.494 2.377-1.73 1.47-3.555 2.648c-1.005.38-2.215 1.288-3.109 1.832-.428.163-.874.399-1.284.617-.428.254-1.06.562-1.507.725-.242.091-.465.164-.689.327-.428.109-.819.29-1.19.453-.578.29-1.248.508-1.862.726l-.447.127c-.428.127-.893.254-1.302.49-.54.09-1.21.272-1.862.453a11.92 11.92 0 01-1.135.29l-.614.11c-.502.072-1.042.144-1.507.362-.503.018-1.061.109-1.62.218-.465.072-.93.163-1.284.181-.819.018-1.637.018-2.456.018l-2.755-.036c-1.86-.036-4.578-.073-5.713.018l-1.638-.308a4.93 4.93 0 00-.782-.163l-.484-.037a8.398 8.398 0 00-1.023-.308c-.41-.09-.838-.163-1.117-.2l-.651-.181c-.614-.181-1.359-.417-1.954-.508-.503-.29-1.154-.472-1.657-.617l-.316-.09-3.052-1.18-3.183-1.65c-.26-.2-.614-.381-.93-.563l-.391-.217-2.308-1.488-.26-.2c-.261-.199-.54-.416-.875-.58-.354-.344-.82-.69-1.173-.961l-.893-.708-5.565-5.55-.54-.654-.54-.707c-.334-.435-.707-.925-1.023-1.27-.186-.435-.484-.816-.763-1.179a6.56 6.56 0 01-.502-.744 8.358 8.358 0 00-.652-.997 7.343 7.343 0 00-.577-1.07 9.117 9.117 0 01-.446-.835c-.187-.417-.391-.87-.69-1.252-.11-.435-.315-.834-.52-1.215-.15-.254-.242-.526-.354-.78a7.645 7.645 0 00-.446-.962l-1.08-3.21c-.298-.871-.577-1.996-.837-3.139a45.148 45.148 0 01-.67-3.845L.512 46.8c-.056-.853-.13-1.796-.223-2.34v-3.846c.186-.653.26-1.578.316-2.449.037-.526.074-1.016.13-1.306v-.054c.205-1.198.391-2.25.633-3.266.223-.997.503-2.031.875-3.21l.353-.962c.28-.69.577-1.451.67-2.086.168-.29.335-.653.521-1.034.354-.78.782-1.76.95-2.159.223-.344.502-.852.781-1.36.28-.508.54-1.052.726-1.451.41-.454.893-1.216 1.284-1.832.577-.98 1.377-1.978 2.085-2.903.149-.145.26-.29.372-.453l.13-.164c1.117-1.197 2.215-2.412 3.35-3.591a55.564 55.564 0 012.047-1.833c.596-.507 1.191-.997 1.731-1.378l.15-.09c.241-.164.427-.273.576-.509l4.3-2.72a4.03 4.03 0 00.576-.345c.391-.146.745-.345 1.08-.526l.316-.182.521-.254c.316-.145.651-.308.93-.471.578-.218 1.564-.58 2.066-.926 1.024-.344 3.704-1.07 4.858-1.596l.986-.181c.615-.127 1.266-.29 1.638-.418l.335-.036c.614-.072 1.34-.145 1.917-.417L41.456.09l.558-.036c.745-.036 1.638-.09 2.197-.018.223.036.409.072.558.145.26.09.577.308.856.417l.093-.018zm0 17.396l.26.236c.075.145.187.236.317.363l.205.345.279.816c.149 2.612.093 5.442.056 8.199l-.038 3.791v9.07c0 .708-.018 1.125-.037 1.415-.074 1.596-.074 1.65 1.061 2.74l2.755 2.684c.242.2.465.435.688.671l.075.073c.242.254.483.508.744.725.39.327.651.599.95.89a299.077 299.077 0 005.49 5.296c.148.145.316.29.409.4l.13.18c.112.164.205.309.354.472l.186.563c.093.29.205.598.167 1.124-.037.381-.186.708-.297.98l-.224.508-.037.036c-.633.653-.651.653-.707.69l-.112.054c-.167.072-.39.163-.726.363l-.558.09a6.16 6.16 0 01-.856-.054 3.542 3.542 0 01-.782-.236l-.595-.363-.186-.218c-.075-.126-.224-.272-.428-.49a1.97 1.97 0 00-.522-.38l-.576-.563c-.02-.18-.168-.38-.596-.707a1.895 1.895 0 00-.41-.29l-.688-.671c-.056-.145-.205-.327-.503-.617a1.695 1.695 0 00-.465-.327l-.67-.653c-.056-.145-.205-.344-.502-.616l-.28-.236-.54-.58-.465-.418-.353-.363a1.536 1.536 0 00-.28-.2c-.316-.344-.688-.67-.967-.925l-.093-.072a2.371 2.371 0 00-.317-.381c-.204-.2-.353-.308-.502-.38l-.614-.6c-.056-.145-.205-.326-.503-.616l-.242-.2a8.59 8.59 0 00-.558-.598l-.651-.58-.186-.219-.28-.254a5.87 5.87 0 00-.483-.471l-.112-.09a4.207 4.207 0 01-.67-.745 2.731 2.731 0 01-.354-.816l-.149-.472c.15-2.594.093-11.428.075-15.963l-.019-2.485c0-.58-.019-1.379-.056-2.177-.13-3.247-.26-6.802 2.29-7.201 1.32-.2 1.88.018 2.772.453h-.074z" fill="#FF0"/></svg>