<svg width="12" height="11" viewBox="0 0 12 11" fill="none" xmlns="http://www.w3.org/2000/svg">
<path fill-rule="evenodd" clip-rule="evenodd" d="M8.64457 0.779151C9.00322 1.00807 9.82445 1.16011 10.3602 1.16011C10.2633 1.64272 10.0189 1.62563 9.67496 1.89726L8.42322 2.89578C7.03932 4.04891 8.03506 2.98291 6.54786 3.44416V3.82512L7.3075 3.97374C7.17341 4.11041 7.0637 4.24025 6.88982 4.40766C6.34576 4.93041 5.84468 5.16189 5.78565 6.10917C6.38105 6.0434 6.34255 5.67952 6.80129 5.30454C7.10861 5.05342 7.59044 4.56312 7.88172 4.45977C9.0045 5.46085 8.65676 8.00286 7.36075 8.8408C6.45419 9.42762 4.48002 9.5677 3.36494 9.20382C2.61556 8.95953 0.924974 7.82776 0.924974 6.10831C0.924974 4.60327 1.01608 3.29126 2.23702 2.27309C3.44834 1.26261 5.80362 0.894463 7.01943 1.92801C7.33637 2.19707 7.15865 2.2543 7.59557 2.30299C7.54681 1.5274 7.04573 1.38561 6.51193 1.20794C3.3829 0.165857 0.0665283 2.33032 0.0665283 5.85548C0.0665283 7.44765 0.234625 8.28559 1.24962 9.10218C3.01655 10.5235 3.13332 10.2963 5.21335 10.2963C7.51537 10.2963 9.59733 8.11305 9.59733 6.49013C9.59733 5.4079 9.49275 4.16081 8.54897 3.82597V3.57229C8.89543 3.44928 10.3082 1.76486 11.0268 1.54192C10.3037 5.67354 11.694 4.94237 11.694 4.46062C11.694 3.04014 11.583 3.17766 11.7601 1.47444C11.8416 0.692025 11.9058 0.876526 10.7355 0.661275C10.3961 0.598921 10.3185 0.563046 9.97522 0.531441C9.38368 0.477629 8.93136 0.230774 8.64457 0.780859V0.779151Z" fill="#FFFF00"/>
</svg>
