<svg width="44" height="28" fill="none" xmlns="http://www.w3.org/2000/svg"><path fill-rule="evenodd" clip-rule="evenodd" d="M32.17.966c1.345.633 4.425 1.053 6.434 1.053-.363 1.334-1.28 1.287-2.57 2.038l-4.694 2.76c-5.19 3.187-1.456.24-7.033 1.516v1.053l2.849.41c-.503.378-.915.737-1.567 1.2-2.04 1.445-3.92 2.085-4.14 4.703 2.232-.181 2.088-1.187 3.808-2.224 1.153-.694 2.96-2.05 4.052-2.335 4.21 2.767 2.907 9.794-1.954 12.11-3.4 1.622-10.803 2.01-14.985 1.004-2.81-.676-9.15-3.804-9.15-8.557 0-4.16.341-7.787 4.92-10.601 4.543-2.794 13.376-3.811 17.935-.954 1.189.743.522.902 2.161 1.036-.183-2.144-2.062-2.536-4.064-3.027C12.437-.729 0 5.254 0 14.998c0 4.401.63 6.717 4.437 8.975 6.626 3.928 7.064 3.3 14.865 3.3 8.633 0 16.441-6.035 16.441-10.52 0-2.992-.392-6.44-3.932-7.365v-.701c1.3-.34 6.598-4.996 9.293-5.613-2.712 11.421 2.502 9.4 2.502 8.068 0-3.926-.416-3.546.248-8.254C44.16.725 44.4 1.235 40.012.64 38.739.468 38.448.37 37.16.281c-2.218-.148-3.914-.83-4.99.69V.966z" fill="#FF0"/></svg>