<svg width="78" height="79" fill="none" xmlns="http://www.w3.org/2000/svg"><path fill-rule="evenodd" clip-rule="evenodd" d="M39.005 46.253c.827.433 1.632 1.56 2.373 2.306l16.817 16.735c3.211 3.182 6.572 6.256 9.665 9.514 1.482 1.57 3.06 3.778 6.325 3.075 3.05-.66 5.745-4.839 1.944-8.638-.849-.845-1.568-1.548-2.416-2.382-1.429-1.385-3.243-3.344-4.758-4.838L44.868 38.167c-2.083-2.046-3.114-3.799-5.863-3.799-2.803 0-3.812 1.775-5.778 3.702-1.664 1.624-3.167 3.128-4.832 4.752L1.967 69.126c-3.973 3.929-1.16 8.01 1.707 8.692 3.276.79 4.919-1.31 6.38-2.955 1.449-1.624 3.242-3.204 4.82-4.763L34.14 51.005c.88-.866 1.471-1.461 2.384-2.414.73-.768 1.804-2.013 2.48-2.381v.043zm0-34.379c1.396.823 5.53 5.489 7.141 7.069l2.416 2.37c1.654 1.624 3.19 3.129 4.833 4.753l9.579 9.59c1.654 1.635 3.19 3.118 4.832 4.752 1.332 1.331 3.072 3.832 6.422 3.085 2.653-.595 5.928-4.59 1.847-8.638-.45-.444-.762-.736-1.213-1.19-.42-.423-.72-.845-1.128-1.267L44.89 3.713C43.612 2.446 41.83.01 38.994 0c-2.803 0-4.532 2.349-5.799 3.615-1.61 1.602-3.243 3.356-4.757 4.839a1597.949 1597.949 0 00-9.665 9.515c-1.493 1.472-3.243 3.355-4.757 4.838L4.35 32.311C2.9 33.751.517 35.938.13 37.681c-.645 2.868 1.374 5.238 3.479 5.769 3.372.866 5.133-1.635 6.475-2.955L31.756 19.03c.451-.444.666-.769 1.128-1.267.408-.444.773-.768 1.203-1.19 1.052-1.029 3.92-4.114 4.896-4.71l.022.011z" fill="#FF0"/></svg>