<svg width="174" height="108" fill="none" xmlns="http://www.w3.org/2000/svg"><path fill-rule="evenodd" clip-rule="evenodd" d="M127.218 3.82c5.319 2.502 17.498 4.164 25.443 4.164-1.436 5.276-5.062 5.09-10.162 8.058l-18.564 10.915c-20.524 12.605-5.757.953-27.813 5.995v4.164l11.266 1.625c-1.988 1.494-3.616 2.913-6.194 4.743-8.069 5.715-15.5 8.245-16.376 18.6 8.83-.72 8.26-4.697 15.063-8.796 4.558-2.745 11.703-8.104 16.023-9.234 16.652 10.943 11.495 38.73-7.726 47.89-13.445 6.414-42.723 7.946-59.26 3.968C37.803 93.242 12.73 80.87 12.73 62.074c0-16.452 1.351-30.793 19.459-41.923 17.965-11.046 52.895-15.07 70.926-3.773 4.7 2.942 2.065 3.567 8.545 4.1-.724-8.479-8.155-10.029-16.072-11.97C49.184-2.885 0 20.775 0 59.31 0 76.715 2.493 85.875 17.546 94.8c26.205 15.537 27.937 13.053 58.785 13.053 34.14 0 65.017-23.865 65.017-41.606 0-11.83-1.551-25.462-15.548-29.122v-2.774c5.138-1.344 26.091-19.757 36.748-22.194-10.724 45.164 9.895 37.171 9.895 31.905 0-15.528-1.646-14.024.981-32.642 1.208-8.553 2.159-6.537-15.196-8.89-5.034-.681-6.185-1.073-11.276-1.419-8.773-.588-15.481-3.286-19.734 2.727V3.82z" fill="#FF0"/></svg>